<?xml version="1.0" encoding="UTF-8"?><svg id="Layer_1" xmlns="http://www.w3.org/2000/svg" viewBox="0 0 90 28.62"><defs><style>.cls-1{fill:#888;}.cls-1,.cls-2{fill-rule:evenodd;}.cls-2{fill:#875a7b;}</style></defs><path class="cls-1" d="M79.12,28.62c6,0,10.87-4.86,10.88-10.86,0-6-4.86-10.87-10.86-10.88-6,0-10.87,4.86-10.88,10.86h0c0,6,4.86,10.87,10.86,10.88h0ZM79.12,24.16c3.54,0,6.41-2.86,6.42-6.4,0-3.54-2.86-6.41-6.4-6.42-3.54,0-6.41,2.86-6.42,6.4h0c0,3.54,2.86,6.41,6.4,6.42,0,0,0,0,0,0Z"/><path class="cls-1" d="M56.09,28.62c6,0,10.87-4.86,10.88-10.86,0-6-4.86-10.87-10.86-10.88-6,0-10.87,4.86-10.88,10.86h0c0,6,4.85,10.87,10.85,10.88h0ZM56.09,24.16c3.54,0,6.41-2.86,6.42-6.4,0-3.54-2.86-6.41-6.4-6.42-3.54,0-6.41,2.86-6.42,6.4h0c0,3.54,2.86,6.41,6.4,6.42,0,0,0,0,0,0Z"/><path class="cls-1" d="M44.25,17.67v.08c0,6-4.86,10.86-10.86,10.86-6,0-10.86-4.86-10.86-10.86s4.86-10.86,10.86-10.86c2.36,0,4.66.77,6.54,2.19V2.16C39.93.97,40.9,0,42.09,0c1.19,0,2.16.97,2.16,2.16h0v15.51ZM33.38,24.16c3.54.02,6.42-2.84,6.44-6.38.02-3.54-2.84-6.42-6.38-6.44-3.54-.02-6.42,2.84-6.44,6.38h0c-.02,3.54,2.84,6.42,6.38,6.44h0Z"/><path class="cls-2" d="M10.87,28.6c6,0,10.87-4.87,10.87-10.87s-4.87-10.87-10.87-10.87S0,11.73,0,17.73c0,6,4.87,10.87,10.87,10.87h0ZM10.77,24.18c3.54,0,6.41-2.87,6.41-6.41,0-3.54-2.87-6.41-6.41-6.41s-6.41,2.87-6.41,6.41c0,.01,0,.03,0,.04h0c.02,3.52,2.89,6.37,6.41,6.37Z"/></svg>